<svg width="26" height="38" viewBox="0 0 26 38" fill="none" xmlns="http://www.w3.org/2000/svg">
<path d="M10.1772 16.1772C7.83951 16.1772 5.46867 17.0654 3.59125 18.536C1.71383 20.0067 0.272186 22.1445 0.272186 24.6523V28.9003C0.272186 33.5757 4.08235 37.3754 8.75773 37.3754H17.2433C21.9186 37.3754 25.7288 33.5757 25.7288 28.9003V24.6523C25.7288 22.1445 24.2872 20.0067 22.4097 18.536C20.5323 17.0654 18.1615 16.1772 15.8238 16.1772C15.4527 16.1775 15.0965 16.3237 14.8322 16.5843L13.0057 18.4212L11.1687 16.5843C10.9045 16.3237 10.5483 16.1775 10.1772 16.1772ZM9.73883 19.1518L12.0037 21.4167C12.2687 21.68 12.627 21.8278 13.0005 21.8278C13.374 21.8278 13.7323 21.68 13.9973 21.4167L16.2622 19.1518C17.7412 19.2615 19.4065 19.7825 20.6667 20.7696C22.0519 21.8547 22.9003 23.2436 22.9003 24.6523V28.9003C22.9003 32.058 20.4009 34.5469 17.2433 34.5469H8.75773C5.60005 34.5469 3.1007 32.058 3.1007 28.9003V24.6523C3.1007 23.2436 3.94911 21.8547 5.33429 20.7696C6.59445 19.7825 8.25975 19.2615 9.73883 19.1518ZM12.9953 0.62561C9.49806 0.62561 6.63895 3.48472 6.63895 6.98194C6.63895 10.4792 9.49806 13.3487 12.9953 13.3487C16.4925 13.3487 19.362 10.4792 19.362 6.98194C19.362 3.48472 16.4925 0.62561 12.9953 0.62561ZM12.9953 3.44369C14.9642 3.44369 16.5335 5.01299 16.5335 6.98194C16.5335 8.95088 14.9642 10.5202 12.9953 10.5202C11.0263 10.5202 9.46746 8.95088 9.46746 6.98194C9.46746 5.01299 11.0263 3.44369 12.9953 3.44369Z" fill="#303030"/>
<path d="M20.6354 17.5654C20.3822 17.5607 20.1324 17.6241 19.9121 17.7489C19.6918 17.8738 19.509 18.0555 19.3829 18.2751L16.951 22.3665L13.9973 19.4128C13.8673 19.2749 13.7109 19.1646 13.5374 19.0884C13.3639 19.0121 13.1769 18.9716 12.9874 18.969C12.7979 18.9665 12.6099 19.0021 12.4344 19.0737C12.259 19.1452 12.0997 19.2513 11.966 19.3857C11.8324 19.52 11.7271 19.6799 11.6565 19.8557C11.5858 20.0315 11.5512 20.2197 11.5547 20.4092C11.5582 20.5987 11.5998 20.7855 11.6769 20.9586C11.7541 21.1316 11.8652 21.2874 12.0037 21.4167L16.2413 25.6543C16.3939 25.8059 16.5791 25.9206 16.7827 25.9899C16.9864 26.0591 17.2031 26.081 17.4165 26.0538C17.6298 26.0266 17.8342 25.9511 18.014 25.8331C18.1938 25.715 18.3443 25.5575 18.454 25.3725L21.8148 19.7259C21.947 19.5133 22.0204 19.2695 22.0274 19.0192C22.0345 18.769 21.9751 18.5214 21.8551 18.3017C21.7352 18.082 21.5591 17.8981 21.3448 17.7687C21.1305 17.6393 20.8857 17.5692 20.6354 17.5654Z" fill="#303030"/>
<path d="M5.32385 17.5758C5.07872 17.5878 4.84092 17.6633 4.63382 17.795C4.42672 17.9266 4.25746 18.11 4.14268 18.3269C4.0279 18.5438 3.97156 18.7869 3.97918 19.0322C3.98681 19.2775 4.05815 19.5165 4.18618 19.7259L7.547 25.3725C7.65673 25.5575 7.80722 25.715 7.98701 25.8331C8.16681 25.9511 8.37116 26.0266 8.58453 26.0538C8.7979 26.081 9.01465 26.0591 9.21829 25.9899C9.42194 25.9207 9.60711 25.8059 9.75971 25.6543L13.9973 21.4168C14.1358 21.2875 14.2469 21.1317 14.3241 20.9586C14.4012 20.7855 14.4428 20.5987 14.4463 20.4092C14.4498 20.2198 14.4152 20.0315 14.3445 19.8557C14.2739 19.6799 14.1686 19.5201 14.035 19.3857C13.9013 19.2514 13.742 19.1453 13.5666 19.0737C13.3911 19.0021 13.2031 18.9665 13.0136 18.9691C12.8241 18.9716 12.6371 19.0122 12.4636 19.0884C12.2901 19.1646 12.1337 19.2749 12.0037 19.4128L9.04997 22.3666L6.61808 18.2751C6.48727 18.051 6.29733 17.8673 6.06906 17.7439C5.84078 17.6206 5.58297 17.5624 5.32385 17.5758ZM17.2433 27.4808C16.8682 27.4808 16.5085 27.6298 16.2432 27.8951C15.978 28.1603 15.829 28.52 15.829 28.8951C15.829 29.2702 15.978 29.6299 16.2432 29.8951C16.5085 30.1604 16.8682 30.3094 17.2433 30.3094H18.6523C19.0274 30.3094 19.3871 30.1604 19.6523 29.8951C19.9176 29.6299 20.0666 29.2702 20.0666 28.8951C20.0666 28.52 19.9176 28.1603 19.6523 27.8951C19.3871 27.6298 19.0274 27.4808 18.6523 27.4808H17.2433Z" fill="#303030"/>
</svg>
