<svg width="38" height="34" viewBox="0 0 38 34" fill="none" xmlns="http://www.w3.org/2000/svg">
<path d="M9.10132 0.0341034C4.42728 0.0341034 0.628647 3.84317 0.628647 8.51721V25.4834C0.628647 30.1575 4.42728 33.9665 9.10132 33.9665H28.8952C33.5693 33.9665 37.3679 30.1575 37.3679 25.4834V8.51721C37.3679 3.84317 33.5693 0.0341034 28.8952 0.0341034H9.10132ZM9.10132 2.86181H28.8952C32.052 2.86181 34.5506 5.36044 34.5506 8.51721V25.4834C34.5506 28.6402 32.052 31.1388 28.8952 31.1388H9.10132C5.94455 31.1388 3.44592 28.6402 3.44592 25.4834V8.51721C3.44592 5.36044 5.94455 2.86181 9.10132 2.86181Z" fill="#303030"/>
<path d="M2.03728 8.51722C1.6623 8.51722 1.30268 8.66618 1.03754 8.93132C0.772387 9.19647 0.623428 9.55609 0.623428 9.93107C0.623428 10.306 0.772387 10.6657 1.03754 10.9308C1.30268 11.196 1.6623 11.3449 2.03728 11.3449H35.9593C36.3343 11.3449 36.6939 11.196 36.959 10.9308C37.2242 10.6657 37.3731 10.306 37.3731 9.93107C37.3731 9.55609 37.2242 9.19647 36.959 8.93132C36.6939 8.66618 36.3343 8.51722 35.9593 8.51722H2.03728ZM28.7492 4.28088C28.3742 4.30028 28.0223 4.46783 27.7709 4.74667C27.5195 5.02551 27.3891 5.39281 27.4085 5.76777C27.4278 6.14272 27.5954 6.49463 27.8742 6.74608C28.153 6.99753 28.5203 7.12792 28.8952 7.10858H30.3039C30.4895 7.10858 30.6734 7.07201 30.8449 7.00096C31.0165 6.92991 31.1723 6.82576 31.3036 6.69448C31.4349 6.56319 31.5391 6.40733 31.6101 6.23579C31.6812 6.06425 31.7177 5.8804 31.7177 5.69473C31.7177 5.50906 31.6812 5.32521 31.6101 5.15367C31.5391 4.98214 31.4349 4.82628 31.3036 4.69499C31.1723 4.5637 31.0165 4.45956 30.8449 4.3885C30.6734 4.31745 30.4895 4.28088 30.3039 4.28088H28.8952C28.8466 4.27836 28.7978 4.27836 28.7492 4.28088H28.7492ZM21.6851 4.28088C21.3101 4.29887 20.9577 4.46508 20.7052 4.74295C20.4528 5.02081 20.3211 5.38758 20.3391 5.76256C20.3571 6.13753 20.5233 6.49001 20.8012 6.74243C21.079 6.99486 21.4458 7.12657 21.8208 7.10858H23.2398C23.4255 7.10858 23.6094 7.07201 23.7809 7.00096C23.9524 6.92991 24.1083 6.82576 24.2396 6.69448C24.3709 6.56319 24.475 6.40733 24.5461 6.23579C24.6171 6.06425 24.6537 5.8804 24.6537 5.69473C24.6537 5.50906 24.6171 5.32521 24.5461 5.15367C24.475 4.98214 24.3709 4.82628 24.2396 4.69499C24.1083 4.5637 23.9524 4.45956 23.7809 4.3885C23.6094 4.31745 23.4255 4.28088 23.2398 4.28088H21.8208C21.7756 4.27871 21.7303 4.27871 21.6851 4.28088Z" fill="#303030"/>
<path d="M14.7359 8.49634C14.5502 8.49971 14.367 8.53963 14.1967 8.61383C14.0265 8.68803 13.8725 8.79505 13.7436 8.92877C13.6148 9.06249 13.5135 9.2203 13.4456 9.39317C13.3778 9.56604 13.3446 9.7506 13.3481 9.93628V32.5475C13.3481 32.7331 13.3847 32.917 13.4557 33.0885C13.5268 33.2601 13.6309 33.4159 13.7622 33.5472C13.8935 33.6785 14.0494 33.7826 14.2209 33.8537C14.3924 33.9247 14.5763 33.9613 14.762 33.9613C14.9476 33.9613 15.1315 33.9247 15.303 33.8537C15.4745 33.7826 15.6304 33.6785 15.7617 33.5472C15.893 33.4159 15.9971 33.2601 16.0682 33.0885C16.1392 32.917 16.1758 32.7331 16.1758 32.5475V9.93628C16.1794 9.7462 16.1446 9.55736 16.0735 9.38105C16.0024 9.20473 15.8964 9.04457 15.762 8.91014C15.6276 8.77571 15.4674 8.66978 15.2911 8.59868C15.1148 8.52758 14.9259 8.49277 14.7359 8.49634Z" fill="#303030"/>
<path d="M14.7567 22.6557H35.9593C37.8444 22.6557 37.8444 19.828 35.9593 19.828H14.7567V22.6557Z" fill="#303030"/>
<path d="M25.3371 8.49635C25.1515 8.49972 24.9683 8.53964 24.798 8.61384C24.6277 8.68803 24.4738 8.79505 24.3449 8.92877C24.216 9.0625 24.1148 9.2203 24.0469 9.39318C23.979 9.56605 23.9459 9.7506 23.9494 9.93629V21.2367C23.9494 21.6116 24.0983 21.9713 24.3635 22.2364C24.6286 22.5016 24.9882 22.6505 25.3632 22.6505C25.7382 22.6505 26.0978 22.5016 26.363 22.2364C26.6281 21.9713 26.7771 21.6116 26.7771 21.2367V9.93629C26.7806 9.74621 26.7458 9.55737 26.6747 9.38105C26.6036 9.20474 26.4977 9.04457 26.3633 8.91015C26.2289 8.77572 26.0687 8.66979 25.8924 8.59869C25.7161 8.52759 25.5272 8.49278 25.3371 8.49635ZM7.69269 14.1726C7.31772 14.1726 6.9581 14.3216 6.69295 14.5867C6.4278 14.8519 6.27884 15.2115 6.27884 15.5865C6.27884 15.9614 6.4278 16.3211 6.69295 16.5862C6.9581 16.8514 7.31772 17.0003 7.69269 17.0003H9.10133C9.4763 17.0003 9.83592 16.8514 10.1011 16.5862C10.3662 16.3211 10.5152 15.9614 10.5152 15.5865C10.5152 15.2115 10.3662 14.8519 10.1011 14.5867C9.83592 14.3216 9.4763 14.1726 9.10133 14.1726H7.69269ZM7.54661 19.828C7.17166 19.8474 6.81976 20.015 6.56834 20.2938C6.31691 20.5727 6.18654 20.94 6.20591 21.3149C6.22528 21.6899 6.3928 22.0418 6.67163 22.2932C6.95045 22.5447 7.31773 22.6751 7.69269 22.6557H9.10133C9.47631 22.6557 9.83592 22.5068 10.1011 22.2416C10.3662 21.9765 10.5152 21.6169 10.5152 21.2419C10.5152 20.8669 10.3662 20.5073 10.1011 20.2421C9.83592 19.977 9.47631 19.828 9.10133 19.828H7.69269C7.64403 19.8255 7.59527 19.8255 7.54661 19.828H7.54661ZM7.54661 25.4834C7.17166 25.5028 6.81976 25.6704 6.56834 25.9492C6.31691 26.2281 6.18654 26.5954 6.20591 26.9703C6.22528 27.3453 6.3928 27.6972 6.67163 27.9486C6.95045 28.2001 7.31773 28.3305 7.69269 28.3111H9.10133C9.47631 28.3111 9.83592 28.1622 10.1011 27.897C10.3662 27.6319 10.5152 27.2723 10.5152 26.8973C10.5152 26.5223 10.3662 26.1627 10.1011 25.8975C9.83592 25.6324 9.47631 25.4834 9.10133 25.4834H7.69269C7.64403 25.4809 7.59527 25.4809 7.54661 25.4834H7.54661ZM7.54661 4.28088C7.17166 4.30028 6.81976 4.46783 6.56834 4.74667C6.31691 5.02551 6.18654 5.39281 6.20591 5.76777C6.22528 6.14272 6.3928 6.49463 6.67163 6.74608C6.95045 6.99753 7.31773 7.12792 7.69269 7.10858H9.10133C9.287 7.10858 9.47085 7.07201 9.64239 7.00096C9.81392 6.92991 9.96978 6.82576 10.1011 6.69448C10.2324 6.56319 10.3365 6.40733 10.4076 6.23579C10.4786 6.06425 10.5152 5.8804 10.5152 5.69473C10.5152 5.50906 10.4786 5.32521 10.4076 5.15367C10.3365 4.98214 10.2324 4.82628 10.1011 4.69499C9.96978 4.5637 9.81392 4.45956 9.64239 4.3885C9.47085 4.31745 9.287 4.28088 9.10133 4.28088H7.69269C7.64403 4.27836 7.59527 4.27836 7.54661 4.28088H7.54661Z" fill="#303030"/>
</svg>
